# WaveFront *.obj file (generated by CINEMA 4D)

mtllib ./未标题_1.mtl

o 布尔.1
v -100 339.95376586914062 -93.16994476318359
v -100 348.14434814453125 -93.16994476318359
v 100 339.95376586914062 -93.16994476318359
v 100 348.14434814453125 -93.16994476318359
v 100 339.95376586914062 -100.01861572265625
v 100 348.14434814453125 -100.01861572265625
v -100 339.95376586914062 -100.01861572265625
v -100 348.14434814453125 -100.01861572265625
# 8 vertices

vn 0 0 1
vn 1 0 0
vn 0 0 -1
vn -1 0 0
vn 0 1 0
vn 0 -1 0
# 6 normals

vt 0 0 0
vt 0 1 0
vt 1 1 0
vt 1 0 0
# 4 texture coordinates

o 立方体.1
usemtl default
f 3/4/1 4/3/1 2/2/1 1/1/1
f 5/4/2 6/3/2 4/2/2 3/1/2
f 7/4/3 8/3/3 6/2/3 5/1/3
f 1/4/4 2/3/4 8/2/4 7/1/4
f 4/4/5 6/3/5 8/2/5 2/1/5
f 5/4/6 3/3/6 1/2/6 7/1/6

v -100 0.38044810295105 -19.53235816955566
v -100 437.8397216796875 -19.53235816955566
v 100 0.38044810295105 -19.53235816955566
v 100 437.8397216796875 -19.53235816955566
v 100 0.38044810295105 -99.92423248291016
v 100 437.8397216796875 -99.92423248291016
v -100 0.38044810295105 -99.92423248291016
v -100 437.8397216796875 -99.92423248291016
v 100 0.38044810295105 -95.92423248291016
v 100 437.8397216796875 -95.92423248291016
v -100 0.38044810295105 -95.92423248291016
v -100 437.8397216796875 -95.92423248291016
v 100 0.38044810295105 -90.72423553466797
v 100 437.8397216796875 -90.72423553466797
v -100 0.38044810295105 -90.72423553466797
v -100 437.8397216796875 -90.72423553466797
v 100 0.38044810295105 -95.82423400878906
v 100 437.8397216796875 -95.82423400878906
v -100 0.38044810295105 -95.82423400878906
v -100 437.8397216796875 -95.82423400878906
# 20 vertices

# 0 normal

# 0 texture coordinate

o 立方体
usemtl 节点
f 11/4/1 12/3/1 10/2/1 9/1/1
f 13/4/2 14/3/2 12/2/2 11/1/2
f 9/4/4 10/3/4 16/2/4 15/1/4
f 12/4/5 14/3/5 16/2/5 10/1/5

usemtl 车漆
f 27/4/3 28/3/3 26/2/3 25/1/3
f 13/4/6 11/3/6 9/2/6 15/1/6
f 18/2/4 14/2/4 13/1/4 17/1/4
f 20/3/6 16/3/6 14/2/6 18/2/6
f 19/4/2 15/4/2 16/3/2 20/3/2
f 17/1/5 13/1/5 15/4/5 19/4/5
f 22/2/4 18/2/4 17/1/4 21/1/4
f 24/3/6 20/3/6 18/2/6 22/2/6
f 23/4/2 19/4/2 20/3/2 24/3/2
f 21/1/5 17/1/5 19/4/5 23/4/5
f 26/2/2 22/2/2 21/1/2 25/1/2
f 28/3/5 24/3/5 22/2/5 26/2/5
f 27/4/4 23/4/4 24/3/4 28/3/4
f 25/1/6 21/1/6 23/4/6 27/4/6

